<svg width="50" height="50" viewBox="0 0 50 50" fill="none" xmlns="http://www.w3.org/2000/svg">
<rect width="50" height="50" rx="4" fill="#FFF5FE"/>
<path d="M35 13.668L33 11.668L31 13.668L29 11.668L27 13.668L25 11.668L23 13.668L21 11.668L19 13.668L17 11.668L15 13.668L13 11.668V38.3346L15 36.3346L17 38.3346L19 36.3346L21 38.3346L23 36.3346L25 38.3346L27 36.3346L29 38.3346L31 36.3346L33 38.3346L35 36.3346L37 38.3346V11.668L35 13.668ZM34.3333 34.4546H15.6667V15.548H34.3333V34.4546ZM17 29.0013H33V31.668H17V29.0013ZM17 23.668H33V26.3346H17V23.668ZM17 18.3346H33V21.0013H17V18.3346Z" fill="#73035A"/>
</svg>
